<svg width="223" height="222" viewBox="0 0 223 222" fill="none" xmlns="http://www.w3.org/2000/svg">
<g clip-path="url(#clip0_103_1608)">
<path d="M31.3529 232.084C28.8972 232.272 29.0927 230.369 28.9597 228.599C28.467 222.114 31.0166 212.661 31.3451 205.848C32.1115 190.317 29.2726 176.064 27.4503 160.823C29.5228 161.669 29.7027 164.402 30.1876 166.298C33.1908 177.959 34.3013 193.834 33.6913 205.848C33.2533 214.549 30.8915 223.32 31.3451 232.084H31.3529Z" fill="white"/>
<path d="M176.826 182.361C176.474 185.924 175.575 188.728 173.565 191.625C170.64 195.815 165.932 197.687 163.523 201.932C168.583 201.846 171.477 196.16 175.254 193.717C176.732 201.948 175.192 210.093 175.231 218.418C175.239 220.493 176.146 222.404 176.107 224.644C176.068 226.884 174.355 230.666 174.48 231.684C175.02 236.102 178.359 228.152 178.437 225.435C178.742 215.183 177.71 202.934 177.561 192.51L179.157 165.288C183.716 161.802 190.082 158.255 194.071 154.198C197.551 150.658 200.711 144.91 204.222 140.868C209.329 134.995 215.899 128.878 220.599 122.809C222.601 120.224 224.697 117.616 220.841 115.502C219.043 115.008 216.094 116.551 214.749 117.726C213.06 119.198 211.644 122.675 209.681 123.999C208.735 120.498 213.044 105.062 205.974 108.156C199.788 110.857 201.36 126.067 198.341 131.831C196.026 126.928 194.313 121.689 190.888 117.366C188.628 114.515 182.207 108.367 180.901 115.212C180.275 118.478 183.693 121.101 185.022 124.015C187.095 128.549 192.178 140.712 184.201 141.965C182.731 142.192 174.48 142.482 174.488 140.837C177.491 136.013 185.828 134.431 183.505 127.093C181.182 119.754 176.56 126.607 174.433 128.267C173.104 129.309 163.171 135.684 162.475 135.621C154.451 129.254 138.904 131.839 131.443 125.973C125.867 121.595 129.925 118.556 129.143 112.604C128.815 110.106 126.461 108.633 126.899 106.574C127.282 104.804 136.964 89.7981 138.786 87.0883C144.011 79.3115 149.954 71.5503 156.086 64.4705C160.669 59.1763 169.999 53.8586 168.818 46.2618C167.637 38.6651 165.017 30.8256 158.776 26.5574C151.816 21.8114 119.055 0.939979 113.087 0.274287C109.31 -0.148623 98.5487 -0.352246 95.8662 1.82496C93.4418 3.79071 88.3114 21.1927 86.2389 25.8604C80.7018 38.3754 71.403 52.7465 62.2606 62.9355C60.2898 65.1283 48.9966 75.1059 48.7307 76.0065C47.0884 81.5984 51.468 91.106 52.4143 96.8623L61.9243 102.595C57.5447 111.68 66.4447 120.882 55.1125 126.27C42.0206 132.496 24.2362 127.265 14.5933 140.516C6.98373 150.971 4.0979 178.531 2.52592 191.868C0.953964 205.213 -0.344269 218.629 0.0702362 232.084C1.93156 232.656 2.16618 230.69 2.33041 229.288C2.88568 224.55 2.07234 219.287 2.41646 214.478C3.57391 198.502 7.88313 152.177 17.2915 140.876C27.6774 128.393 48.1364 135.778 60.2741 125.581C62.8862 136.216 78.4104 140.469 88.0611 141.229C101.646 142.302 123.661 142.059 131.959 129.434C138.567 132.05 145.817 132.128 152.59 133.781C154.162 134.165 161.49 135.872 160.864 138.151C160.293 140.242 156.461 144.635 155.312 147.518C154.404 149.789 152.957 158.803 152.48 159.171C151.847 159.672 148.406 158.568 148.062 160.393L150.244 185.517C145.715 195.009 148.758 201.885 148.711 210.547C148.695 214.212 146.349 218.645 146.31 222.302C146.294 223.853 147.686 232.797 149.039 232.859C150.799 231.731 149.915 231.097 149.837 229.734C149.696 227.181 148.562 224.009 148.687 221.621C148.852 218.418 151.002 214.196 151.057 210.539C151.112 206.882 149.321 202.331 149.399 198.838C149.485 194.883 152.238 190.067 152.582 185.517C153.192 177.513 149.954 169.736 151.002 161.599C158.096 167.668 168.137 167.715 176.803 165.515C176.412 170.942 177.335 177.012 176.803 182.353L176.826 182.361ZM54.2131 95.6405L50.4982 77.0403C67.0625 63.1469 80.9443 44.2883 89.375 24.3018C92.3078 17.3473 94.0362 9.9229 97.0393 2.99971L116.02 2.81175C129.089 11.7868 145.708 19.3366 158.315 28.5936C162.538 31.6949 165.744 41.1321 166.48 46.2853C167.457 53.0597 157.994 58.8082 153.74 63.6951C146.943 71.4955 140.726 80.1808 135.048 88.8348C131.92 93.5965 123.63 109.957 120.009 112.15C117.123 113.904 102.248 118.086 98.7833 118.376C95.3188 118.666 84.096 115.196 80.4203 113.646C70.5271 109.479 64.6694 99.0865 54.2131 95.6405ZM125.976 109.918C128.189 112.017 125.483 120.036 125.984 122.801C126.719 126.842 134.86 127.367 124.967 133.561C112.219 141.534 71.9583 142.02 63.0739 127.891C60.368 123.592 62.9645 122.738 63.4493 118.948C64.1063 113.779 60.978 108.218 64.599 104.451C68.5094 108.406 72.9281 112.839 77.9881 115.306C81.6325 117.076 93.6842 120.843 97.4773 120.905C101.27 120.968 119.055 115.603 122.027 113.403C123.075 112.627 124.951 108.954 125.976 109.925V109.918ZM197.95 144.377C198.662 142.631 198.036 138.95 198.325 137.72C199.068 134.486 201.305 129.708 202.275 125.604C202.541 124.492 204.762 106.151 208.109 109.918C208.743 122.096 206.31 135.143 197.958 144.369L197.95 144.377ZM188.565 141.244L190.122 142.443L191.686 141.62C190.536 136.538 190.348 131.737 188.573 126.74C187.447 123.568 183.654 118.877 183.231 117.193C182.872 115.784 183.231 115.455 184.272 114.617C195.807 121.532 201.634 144.072 191.271 153.752C183.881 160.651 175.911 165.068 165.533 164.763C163.727 164.708 156.148 163.001 155.312 161.622C152.731 157.346 160.332 141.44 163.656 137.838C167.872 133.272 176.349 131.901 179.579 125.589C181.487 124.774 181.746 130.037 181.378 131.282C180.51 134.212 174.574 134.932 173.276 139.662C171.399 146.492 181.573 144.04 185.437 143.978C183.771 145.058 179.79 148.927 178.375 149.475C177.202 149.93 175.387 148.966 173.534 149.209C170.789 149.569 159.112 156.563 161.208 159.249C164.579 156.962 168.982 152.796 172.932 151.747C175.458 151.081 176.881 152.498 178.656 152.232C179.564 152.091 186.454 143.343 189.347 147.502L188.581 141.237L188.565 141.244ZM207.335 133.413C207.789 129.301 211.652 124.508 214.381 121.289C216.071 119.3 217.682 117.201 220.615 117.749C221.936 118.948 208.907 132.12 207.327 133.405L207.335 133.413Z" fill="#C64B86" fill-opacity="0.7"/>
<path d="M31.3529 232.084C30.8914 223.312 33.2533 214.549 33.6991 205.848C34.3091 193.834 33.1986 177.959 30.1954 166.298C29.7105 164.402 29.5306 161.677 27.4582 160.823C29.2804 176.064 32.1193 190.317 31.3529 205.848C31.0166 212.661 28.4748 222.114 28.9676 228.599C29.1005 230.369 28.8972 232.272 31.3607 232.084H31.3529Z" fill="#C64B86" fill-opacity="0.7"/>
<path d="M115.919 19.1641L67.4303 94.0349L68.1186 96.1964L96.7111 113.818L100.559 113.034C118.062 89.5395 132.069 63.7968 147.663 39.0331C147.608 38.3909 145.411 36.5034 144.699 35.963C138.959 31.6243 129.488 26.009 123.098 22.3516C121.722 21.5684 116.967 18.5454 115.911 19.1641H115.919ZM118.398 33.3864C112.931 38.2107 94.8341 69.8037 88.7731 78.5203C87.1073 80.9168 75.9393 97.0735 74.774 97.1597L69.8313 93.8704C85.113 69.5374 103.492 47.131 116.615 21.4196L124.42 25.3433C124.639 25.6331 121.589 31.4677 121.213 31.9219C120.158 33.2063 118.953 32.8852 118.39 33.3864H118.398ZM99.1746 111.257L97.0474 111.852C94.0286 108.335 84.761 105.187 82.188 102.485C81.5154 101.78 81.187 101.326 81.5154 100.308L124.827 28.476C125.374 27.5205 126.062 27.6693 126.985 27.8103C128.15 27.9826 143.033 37.2161 143.98 38.289C144.363 38.7198 144.918 38.9391 144.683 39.6987L124.037 73.1086C124.639 59.599 104.946 56.1609 104.063 71.1821C103.601 79.045 114.456 84.4176 120.134 78.5986L120.51 79.7577L99.1746 111.257ZM108.771 75.4503C104.555 75.419 106.722 67.4229 108.403 65.2848C110.483 62.6534 113.643 63.9456 116.599 63.7106L113.862 68.4018L113.471 65.2691H111.133L112.36 70.023L108.763 75.4503H108.771ZM119.344 65.2926C125.906 71.0333 116.49 82.7494 110.358 77.4082C109.052 76.2726 109.975 76.4214 110.741 75.4581C113.377 72.1375 116.896 68.95 119.344 65.2926ZM90.8065 80.1571C92.5427 75.4425 96.0933 70.6573 99.3936 66.8433C97.6574 71.558 94.1068 76.3431 90.8065 80.1571ZM79.0597 100.519L76.7604 98.5616L86.1062 87.2056L79.0676 100.519H79.0597Z" fill="#C64B86" fill-opacity="0.7"/>
</g>
<defs>
<clipPath id="clip0_103_1608">
<rect width="223" height="233" fill="white" transform="matrix(-1 0 0 1 223 0)"/>
</clipPath>
</defs>
</svg>
