<svg width="168" height="222" viewBox="0 0 168 222" fill="none" xmlns="http://www.w3.org/2000/svg">
<g clip-path="url(#clip0_103_1527)">
<path d="M66.5648 86.2722C66.3225 86.4975 62.3473 88.1831 61.8268 88.2643C44.4723 90.9504 22.2721 84.7849 8.93764 100.929C-1.29204 113.305 0.951294 129.827 0.457764 144.691C-0.143463 162.926 -1.53433 208.086 7.41214 223.266C10.6067 228.683 21.3658 235.119 22.0119 241.086C22.7028 247.396 16.3497 257.69 13.8999 263.648L16.1074 264.991L23.7527 245.16C41.9059 249.496 60.427 249.163 78.966 249.631C81.0927 249.685 83.0579 250.578 85.1756 250.605C101.687 250.83 118.503 250.388 134.467 245.999L140.407 265H143.09L136.755 242.15C154.782 233.037 161.602 219.949 164.5 200.415C167.776 178.394 168.808 147.9 167.363 125.681C164.797 86.1189 133.129 91.4642 103.266 87.3088C102.144 87.1555 97.5051 86.3533 97.3974 85.1725C101.265 74.1575 105.168 62.3493 107.098 50.7934C107.484 48.4949 106.954 46.1152 107.313 43.7986C109.072 32.5853 113.478 13.4398 113.253 2.91152C113.218 1.39718 112.159 0.901414 111.234 -0.0180054C106.093 6.28272 101.31 12.8899 96.5898 19.5061C90.0661 28.6553 82.5554 38.6427 78.4546 49.0627C76.2381 54.6964 68.4223 84.4964 66.5558 86.2451L66.5648 86.2722ZM103.688 13.5569L108.641 16.6127L104.522 46.2144L102.252 47.7647C99.6049 41.7525 98.1332 45.1056 95.0823 45.5834C91.3045 46.1693 94.0234 40.4995 91.3852 39.7063C90.111 38.7238 85.3192 43.0144 85.6692 40.1119L103.688 13.5569ZM83.013 44.1502C86.1627 45.6825 87.1677 42.4015 90.1469 42.3384C88.6932 46.5389 94.8848 49.6306 97.6128 47.8008C98.5191 47.1969 97.7474 45.6284 99.1113 45.9529C99.8741 49.6126 101.184 51.7579 103.598 54.417L94.4452 86.3082C90.6584 85.6953 84.6911 91.8067 82.5375 91.8788C80.1954 91.96 73.6717 85.2176 69.5081 86.0468L83.022 44.1502H83.013ZM96.4283 88.3273C98.7883 88.075 99.9279 88.1741 101.875 89.6073C102.907 90.3735 110.409 100.433 111.181 101.893C112.545 104.471 110.858 108.41 116.17 108.158C116.888 108.915 111.584 117.875 110.633 119.263C107.654 123.59 98.6268 130.675 99.1293 135.56L124.237 182.496C120.109 191.311 112.141 198.829 102.279 200.109C98.8601 186.48 93.153 173.265 89.5098 159.727C87.2754 151.416 82.8605 133.794 83.9552 125.807C85.1397 117.127 93.7452 114.197 99.1203 108.582C99.7036 106.995 97.7653 107.518 97.3974 106.581C96.4372 104.12 96.5898 98.5762 93.1261 97.5035C87.8497 95.881 86.6652 100.469 82.9951 102.741C83.6143 96.6472 87.6343 92.5008 93.9965 93.8979C97.5948 94.6822 99.4523 99.3333 101.875 100.469C102.755 100.884 103.993 100.145 104.576 100.514C105.527 101.109 104.711 103.507 107.205 102.732C106.532 96.4759 100.592 92.3926 96.4462 88.3273H96.4283ZM86.5575 92.8163C90.3264 87.7775 95.8629 88.5527 99.1203 93.7177C96.6257 93.4833 95.172 91.1397 92.3902 91.1487C90.2456 91.1487 88.6842 92.9515 86.5575 92.8163ZM105.402 90.1301L126.929 93.267C122.837 96.5931 120.324 101.064 117.507 105.427L105.393 90.1301H105.402ZM60.5436 95.5295C61.5487 89.7335 69.7234 89.1656 74.2281 90.3375C77.0098 91.0586 79.8454 95.7458 83.8655 94.6371L81.1645 100.938L77.5931 98.6753L80.2851 95.5385C76.7586 96.2686 74.5332 92.7081 71.5361 92.1132C67.3993 91.3019 63.7651 93.1859 60.5436 95.5295ZM41.6905 91.9329L56.9453 91.0405C53.2752 94.8534 47.8373 97.2331 48.8693 103.651C47.263 105.526 40.533 93.0236 41.6905 91.9419V91.9329ZM58.731 203.696C52.1894 203.48 38.4242 188.093 38.9716 182.55C39.1062 181.153 43.4762 176.853 44.7594 174.78C48.8244 168.2 62.7332 143.52 63.9087 137.237C65.5867 128.286 59.8886 125.645 55.8954 118.668C53.1137 113.81 48.1155 104.057 51.642 98.7294C52.997 96.6923 54.4597 98.3238 55.6442 97.4224C57.3222 96.1604 57.376 92.7261 59.6284 91.9149L57.053 99.4866L60.095 101.821C60.0232 94.4568 69.2209 92.8433 73.9948 97.7829L66.0533 98.3508C58.8477 111.745 77.1534 114.81 79.8185 120.777C82.2593 126.249 77.1355 148.36 75.3498 155.012C70.9707 171.282 63.8997 187.616 58.74 203.687L58.731 203.696ZM21.312 234.975C17.3008 231.721 9.27863 221.715 7.5647 216.794C1.47176 199.325 1.65121 146.323 3.12286 126.627C4.16377 112.8 8.60561 99.8652 22.6041 94.8174C25.4487 93.7898 37.0154 90.8783 38.5588 92.8073C39.2767 93.7087 39.6805 96.3858 40.6317 97.9362C46.3029 107.148 51.5613 116.234 57.1068 125.555C59.5027 129.584 62.0871 129.097 61.3782 135.533C60.8577 140.257 46.6528 167.046 43.3147 172.409C41.7264 174.96 39.6177 179.602 36.3155 177.538C36.136 179.386 37.3474 181.766 34.5208 181.144C32.8069 163.702 30.8596 145.944 28.0869 128.565C27.2703 123.428 26.4537 118.208 25.5205 113.098C25.2513 111.619 26.0948 111.547 23.7617 111.745L32.8158 182.505C34.3772 186.354 17.6957 192.276 20.1723 194.664L37.2128 183.848C39.3664 193.267 47.7207 202.642 56.9005 205.553C57.9593 207.041 52.3779 216.235 51.0498 218.02C49.0308 220.733 40.0305 231.342 37.8409 233.136C34.0183 236.273 25.5025 238.346 21.3209 234.957L21.312 234.975ZM126.929 180.26C115.883 167.055 110.777 149.541 101.875 134.74C104.424 129.142 109.565 125.411 113.146 119.984C116.43 115.018 125.457 95.3492 130.258 93.916C133.749 92.8794 139.994 94.4658 143.566 95.5024C159.036 99.9643 163.63 111.385 164.662 126.591C166.044 146.9 165.335 200.01 157.609 217.83C154.953 223.96 144.113 236.714 137.742 238.427C121.24 242.853 107.008 214.729 103.607 201.903C114.429 201.65 120.737 192.699 126.489 184.785C129.729 190.302 135.866 192.555 139.958 197.378C141.896 199.667 142.937 202.759 144.463 204.58C145.531 205.86 146.652 204.805 146.661 204.156C146.67 203.183 141.161 194.917 139.985 193.754C136.082 189.878 130.249 189.085 129.585 182.577C128.409 171.03 136.279 140.022 140.147 128.178C140.972 125.654 147.343 111.7 146.679 110.862C145.315 109.14 144.75 112.124 144.454 112.638C133.533 131.333 129.755 158.969 126.938 180.269L126.929 180.26ZM84.4847 106.058C86.6024 104.471 91.9057 94.1323 94.2388 103.588C96.2309 111.637 91.6544 110.673 86.9883 115.342L82.0888 121.67C80.5992 113.287 64.4381 112.016 67.857 101.533C68.7274 98.8736 78.5712 102.687 79.6929 103.57C80.8774 104.507 80.2762 109.213 84.4847 106.058ZM41.6995 233.442C41.2957 231.874 42.3456 231.64 43.0366 230.738C46.2401 226.538 51.3459 222.418 54.4687 217.884C65.9456 201.155 69.858 174.5 77.8354 155.724L82.0708 137.012C83.381 146.179 85.3551 155.157 87.9215 164.044C91.7262 177.232 96.9936 194.006 102.037 206.653C106.245 217.217 111.737 227.151 119.777 235.245L72.6308 236.192L41.7175 233.442H41.6995ZM24.6411 238.86C30.0879 241.041 36.0283 235.912 39.5549 235.516C42.8122 235.155 52.2522 237.643 56.5056 237.94C73.9409 239.166 93.808 239.662 111.27 238.887C114.348 238.752 118.584 237.066 121.159 237.174C123.734 237.282 130.617 242.97 135.005 242.006C129.791 245.377 121.006 246.531 114.806 246.954C92.5428 248.496 60.768 247.829 38.6575 245.043C34.1529 244.475 29.6841 243.222 25.2064 242.492L24.6321 238.86H24.6411Z" fill="#FEC33F" fill-opacity="0.5"/>
</g>
<defs>
<clipPath id="clip0_103_1527">
<rect width="168" height="265" fill="white" transform="matrix(-1 0 0 1 168 0)"/>
</clipPath>
</defs>
</svg>
